<svg width="19" height="32" viewBox="0 0 19 32" fill="none" xmlns="http://www.w3.org/2000/svg">
<path d="M18.1924 0.00665813L13.6582 0C8.56406 0 5.27199 3.09105 5.27199 7.87524V11.5063H0.712976C0.319018 11.5063 0 11.7985 0 12.1591V17.42C0 17.7806 0.319382 18.0725 0.712976 18.0725H5.27199V31.3476C5.27199 31.7081 5.59101 32 5.98497 32H11.9332C12.3272 32 12.6462 31.7077 12.6462 31.3476V18.0725H17.9768C18.3707 18.0725 18.6897 17.7806 18.6897 17.42L18.6919 12.1591C18.6919 11.986 18.6166 11.8202 18.4831 11.6977C18.3496 11.5752 18.1677 11.5063 17.9786 11.5063H12.6462V8.4282C12.6462 6.94877 13.0314 6.19772 15.1372 6.19772L18.1917 6.19672C18.5853 6.19672 18.9043 5.90442 18.9043 5.54422V0.659155C18.9043 0.299284 18.5857 0.00732395 18.1924 0.00665813Z" fill="#303030"/>
</svg>
