<svg width="32" height="32" viewBox="0 0 32 32" fill="none" xmlns="http://www.w3.org/2000/svg">
<path d="M31.9038 9.40342C31.8259 7.70026 31.5554 6.53716 31.16 5.51958C30.7583 4.45194 30.1285 3.48489 29.3145 2.68557C28.5154 1.8716 27.5481 1.24146 26.4805 0.839607C25.4627 0.444339 24.2998 0.174074 22.5967 0.0966801C20.8904 0.0185549 20.3452 0 16 0C11.6548 0 11.1096 0.0185549 9.40334 0.0961919C7.7002 0.174074 6.53735 0.444584 5.51953 0.840095C4.4519 1.24171 3.48486 1.8716 2.68555 2.68557C1.87158 3.48465 1.24145 4.4517 0.8396 5.51933C0.444336 6.53716 0.174073 7.70026 0.0966793 9.40314C0.0185547 11.1097 0 11.6547 0 15.9999C0 20.3454 0.0185547 20.8906 0.0966793 22.5969C0.174317 24.2997 0.444824 25.4629 0.840332 26.4807C1.24195 27.5481 1.87183 28.5154 2.68579 29.3144C3.48486 30.1284 4.45215 30.7583 5.51977 31.1599C6.53735 31.5557 7.70044 31.8259 9.40352 31.9038C11.1101 31.9817 11.655 32 16.0003 32C20.3454 32 20.8906 31.9817 22.5969 31.9038C24.3001 31.8259 25.4629 31.5557 26.4807 31.1599C28.6299 30.3289 30.3289 28.6299 31.16 26.4807C31.5557 25.4629 31.8259 24.2997 31.9038 22.5969C31.9814 20.8903 32 20.3454 32 16.0001C32 11.6547 31.9814 11.1097 31.9038 9.40342ZM29.0237 22.4657C28.9526 24.0258 28.6919 24.873 28.4729 25.4367C27.9345 26.8322 26.8318 27.9351 25.4363 28.4734C24.8726 28.6924 24.0254 28.9531 22.4654 29.0242C20.7786 29.1013 20.2725 29.1174 16 29.1174C11.7273 29.1174 11.2214 29.1013 9.53445 29.0242C7.97461 28.9531 7.12744 28.6924 6.56347 28.4734C5.86865 28.2168 5.23999 27.8079 4.72388 27.2764C4.19238 26.7603 3.78345 26.1318 3.52686 25.4367C3.30786 24.873 3.04712 24.0258 2.97607 22.4657C2.89917 20.7788 2.88282 20.2726 2.88282 16.0004C2.88282 11.7279 2.89917 11.222 2.97607 9.53471C3.04736 7.97468 3.30786 7.1275 3.52686 6.56378C3.78345 5.8687 4.19263 5.24004 4.72388 4.72392C5.23999 4.19242 5.86865 3.78348 6.56372 3.52713C7.12744 3.30789 7.97461 3.04739 9.53463 2.9761C11.2217 2.8992 11.7278 2.88284 16 2.88284H15.9997C20.272 2.88284 20.7781 2.8992 22.4654 2.97635C24.0254 3.04739 24.8723 3.30813 25.4363 3.52713C26.1311 3.78372 26.7598 4.19267 27.2759 4.72392C27.8074 5.24004 28.2163 5.8687 28.4727 6.56378C28.6919 7.1275 28.9526 7.97468 29.0237 9.53471C29.1006 11.2218 29.117 11.7279 29.117 16.0001C29.117 20.2726 29.1008 20.7785 29.0237 22.4657Z" fill="#303030"/>
<path d="M15.5429 7.31445C10.9985 7.31445 7.31445 10.9987 7.31445 15.5431C7.31445 20.0876 10.9985 23.7716 15.5429 23.7716C20.0876 23.7716 23.7716 20.0876 23.7716 15.5431C23.7716 10.9987 20.0876 7.31445 15.5429 7.31445ZM15.5429 20.8845C12.5932 20.8842 10.2016 18.493 10.2018 15.5429C10.2018 12.5931 12.5932 10.2016 15.5432 10.2016C18.4932 10.2019 20.8844 12.5931 20.8844 15.5429C20.8844 18.493 18.4929 20.8845 15.5429 20.8845Z" fill="#303030"/>
<path d="M26.5141 7.31503C26.5141 8.32484 25.6954 9.14347 24.6856 9.14347C23.6756 9.14347 22.8569 8.32484 22.8569 7.31503C22.8569 6.305 23.6756 5.48633 24.6856 5.48633C25.6954 5.48633 26.5141 6.305 26.5141 7.31503Z" fill="#303030"/>
</svg>
