<svg width="24" height="28" viewBox="0 0 24 28" fill="none" xmlns="http://www.w3.org/2000/svg">
<path d="M15.9273 13.2143L17.211 17.2042L18.4368 16.7878L17.1531 12.7979L18.6463 13.6398L19.2213 12.5646L15.7713 10.6154L14.1265 14.2896L15.2141 14.802L15.9273 13.2143ZM9.57547 21.7844C7.94851 22.338 7.06149 24.1408 7.60083 25.8109C8.14018 27.481 9.8964 28.3915 11.5234 27.8379C13.1503 27.2842 14.0373 25.4814 13.498 23.8114C12.9586 22.1413 11.2024 21.2353 9.57547 21.7844ZM11.033 26.3279C10.2173 26.6025 9.33922 26.1495 9.07178 25.3121C8.80433 24.4748 9.24562 23.5734 10.0613 23.2989C10.877 23.0244 11.7551 23.4773 12.0226 24.3147C12.29 25.152 11.8487 26.0534 11.033 26.3279ZM23.9595 19.4783C23.8213 19.0527 23.3756 18.8194 22.9611 18.9612L13.4757 22.1733C13.8145 22.5668 14.0774 23.0335 14.2468 23.5597L14.2602 23.6146L23.4558 20.5032C23.8704 20.3614 24.0977 19.9038 23.9595 19.4783ZM11.5367 20.947L5.74655 2.93295C5.23841 1.3498 3.56688 0.485012 2.02461 1.00663C0.48235 1.52825 -0.3601 3.24409 0.148044 4.82724C0.286224 5.25277 0.731965 5.48613 1.1465 5.34429C1.56104 5.20244 1.78837 4.74488 1.65019 4.31935C1.41395 3.58726 1.80174 2.79111 2.51939 2.5486C3.23257 2.3061 4.00816 2.70417 4.2444 3.44084L9.85182 20.8784C10.4224 20.7732 10.9974 20.8006 11.5367 20.947ZM16.2125 6.58427L14.1532 0.178448C14.1176 0.0686338 14.0195 0 13.9125 0C13.8858 0 13.859 0.00457559 13.8323 0.0137268L7.35122 2.21001C7.2175 2.25576 7.14618 2.40218 7.19075 2.53945L9.25008 8.94527C9.28573 9.05509 9.3838 9.12372 9.49078 9.12372C9.51752 9.12372 9.54426 9.11914 9.57101 9.10999L16.0521 6.91371C16.1813 6.86796 16.2571 6.72154 16.2125 6.58427ZM10.2352 7.33924L8.91131 3.22121L10.3511 2.7362L10.9573 4.63049L12.3123 4.17293L11.7061 2.27407L13.1681 1.7799L14.492 5.89793L10.2352 7.33924Z" fill="#FF4242"/>
</svg>
